# xmcd
#
# Track frame offsets: 
#        225
#        14478
#        29561
#        41865
#        53771
#        68267
#        79811
#        92479
#        106992
#        119771
#        133563
#        145235
#        157084
#        171675
#        185898
#        199944
#        214753
#        230381
#        247987
#        266807
#        281661
#
# Disc length: 4007 seconds
#
# Revision: 0
# Processed by: cddbd v1.5.2PL0 Copyright (c) Steve Scherf et al.
# Submitted via: ExactAudioCopyFreeDBPlugin 1.0
#
DISCID=420fa415
DTITLE=Various Artist - Jazzin' the Blues Vol. 5 (1930-1953)
DYEAR=2001
DGENRE=Blues
TTITLE0=Lizzie Miles - Too Slow Blues
TTITLE1=Helen Proctor - Someone Outside Is Taking Your Mind Off Me
TTITLE2=Helen Proctor - You'll Never Miss the Water 'Til the Well Runs
TTITLE2=Dry
TTITLE3=Baby Hines - I've Lost My Head Over You
TTITLE4=Baby Hines - This Is the End
TTITLE5=Babe Wallace - I'm Blowin' My Top
TTITLE6=Babe Wallace - Fine Piece of Meat
TTITLE7=Yack Taylor - Hard Lovin' Blues
TTITLE8=Yack Taylor - Sugar Boogie
TTITLE9=Yack Taylor - I'll Make It Worth Your While
TTITLE10=Yack Taylor - Those Draftin' Blues
TTITLE11=Babe Wallace - Git It ('Cause I Love to See You wid It)
TTITLE12=Monette Moore - Rockin' Chair
TTITLE13=Monette Moore - I Want a Little Boy
TTITLE14=Monette Moore - Another Woman's Blues
TTITLE15=Monette Moore - Please Mr. Blues
TTITLE16=Blue Lu Barker - After You've Gone
TTITLE17=Blue Lu Barker - Georgia Grind
TTITLE18="Momma" Alberta Price - Tell Me Baby (Finale Blues)
TTITLE19=Ann Cook - The Lord Will Make a Way
TTITLE20=Monette Moore - Burgundy Street Blues
EXTD=
EXTT0=
EXTT1=
EXTT2=
EXTT3=
EXTT4=
EXTT5=
EXTT6=
EXTT7=
EXTT8=
EXTT9=
EXTT10=
EXTT11=
EXTT12=
EXTT13=
EXTT14=
EXTT15=
EXTT16=
EXTT17=
EXTT18=
EXTT19=
EXTT20=
PLAYORDER=
